REM DIRINDEX 1\5,1\2\6,1\2\7,1\3\8,1\3\9,1\3\10,1\3\11,1\4\12,1\4\13,1\4\14
REM DIRNAME folder01,folder02,folder03,folder04,folder05,folder06,folder07,folder08,folder09,folder10,folder11,folder12,folder13,folder14
TITLE ""
FILE "5Q_t_391-406.mp3" MP3
  TRACK 01 AUDIO
    TITLE "6:cjc043_1200"
    INDEX 01 00:00:00
  TRACK 02 AUDIO
    TITLE "0:"
    INDEX 01 00:01:13
  TRACK 03 AUDIO
    TITLE "7:cjc043_1201"
    INDEX 01 00:01:68
  TRACK 04 AUDIO
    TITLE "0:"
    INDEX 01 00:03:06
  TRACK 05 AUDIO
    TITLE "6:cjc043_1202"
    INDEX 01 00:03:57
  TRACK 06 AUDIO
    TITLE "0:"
    INDEX 01 00:04:62
  TRACK 07 AUDIO
    TITLE "7:cjc043_1203"
    INDEX 01 00:05:40
  TRACK 08 AUDIO
    TITLE "0:"
    INDEX 01 00:06:43
  TRACK 09 AUDIO
    TITLE "6:cjc043_1204"
    INDEX 01 00:07:25
  TRACK 10 AUDIO
    TITLE "0:"
    INDEX 01 00:08:42
  TRACK 11 AUDIO
    TITLE "7:cjc043_1205"
    INDEX 01 00:09:22
  TRACK 12 AUDIO
    TITLE "0:"
    INDEX 01 00:10:33
  TRACK 13 AUDIO
    TITLE "6:cjc043_1206"
    INDEX 01 00:11:13
  TRACK 14 AUDIO
    TITLE "0:"
    INDEX 01 00:12:18
  TRACK 15 AUDIO
    TITLE "7:cjc043_1207"
    INDEX 01 00:12:73
  TRACK 16 AUDIO
    TITLE "0:"
    INDEX 01 00:16:06
  TRACK 17 AUDIO
    TITLE "6:cjc043_1208"
    INDEX 01 00:16:63
  TRACK 18 AUDIO
    TITLE "0:"
    INDEX 01 00:17:53
  TRACK 19 AUDIO
    TITLE "7:cjc043_1209"
    INDEX 01 00:18:35
  TRACK 20 AUDIO
    TITLE "0:"
    INDEX 01 00:19:36
  TRACK 21 AUDIO
    TITLE "6:cjc043_1210"
    INDEX 01 00:20:08
  TRACK 22 AUDIO
    TITLE "0:"
    INDEX 01 00:21:29
  TRACK 23 AUDIO
    TITLE "7:cjc043_1211"
    INDEX 01 00:22:05
  TRACK 24 AUDIO
    TITLE "0:"
    INDEX 01 00:24:10
  TRACK 25 AUDIO
    TITLE "6:cjc043_1212"
    INDEX 01 00:24:63
  TRACK 26 AUDIO
    TITLE "0:"
    INDEX 01 00:25:70
  TRACK 27 AUDIO
    TITLE "7:cjc043_1213"
    INDEX 01 00:26:48
  TRACK 28 AUDIO
    TITLE "0:"
    INDEX 01 00:27:61
  TRACK 29 AUDIO
    TITLE "6:cjc043_1214"
    INDEX 01 00:28:45
  TRACK 30 AUDIO
    TITLE "0:"
    INDEX 01 00:29:58
  TRACK 31 AUDIO
    TITLE "7:cjc043_1215"
    INDEX 01 00:30:38
  TRACK 32 AUDIO
    TITLE "0:"
    INDEX 01 00:31:41
  TRACK 33 AUDIO
    TITLE "6:cjc043_1216"
    INDEX 01 00:32:19
  TRACK 34 AUDIO
    TITLE "0:"
    INDEX 01 00:33:34
  TRACK 35 AUDIO
    TITLE "7:cjc043_1217"
    INDEX 01 00:34:18
  TRACK 36 AUDIO
    TITLE "0:"
    INDEX 01 00:35:10
  TRACK 37 AUDIO
    TITLE "6:cjc043_1218"
    INDEX 01 00:35:72
  TRACK 38 AUDIO
    TITLE "0:"
    INDEX 01 00:37:03
  TRACK 39 AUDIO
    TITLE "7:cjc043_1219"
    INDEX 01 00:37:59
  TRACK 40 AUDIO
    TITLE "0:"
    INDEX 01 00:38:73
  TRACK 41 AUDIO
    TITLE "6:cjc043_1220"
    INDEX 01 00:39:62
  TRACK 42 AUDIO
    TITLE "0:"
    INDEX 01 00:40:66
  TRACK 43 AUDIO
    TITLE "7:cjc043_1221"
    INDEX 01 00:41:49
  TRACK 44 AUDIO
    TITLE "0:"
    INDEX 01 00:42:66
  TRACK 45 AUDIO
    TITLE "6:cjc043_1222"
    INDEX 01 00:43:44
  TRACK 46 AUDIO
    TITLE "0:"
    INDEX 01 00:44:48
  TRACK 47 AUDIO
    TITLE "7:cjc043_1223"
    INDEX 01 00:45:33
  TRACK 48 AUDIO
    TITLE "0:"
    INDEX 01 00:46:39
  TRACK 49 AUDIO
    TITLE "6:cjc043_1224"
    INDEX 01 00:47:21
  TRACK 50 AUDIO
    TITLE "0:"
    INDEX 01 00:48:38
  TRACK 51 AUDIO
    TITLE "7:cjc043_1225"
    INDEX 01 00:49:18
  TRACK 52 AUDIO
    TITLE "0:"
    INDEX 01 00:50:21
  TRACK 53 AUDIO
    TITLE "6:cjc043_1226"
    INDEX 01 00:51:01
  TRACK 54 AUDIO
    TITLE "0:"
    INDEX 01 00:52:06
  TRACK 55 AUDIO
    TITLE "7:cjc043_1227"
    INDEX 01 00:52:59
  TRACK 56 AUDIO
    TITLE "0:"
    INDEX 01 00:53:58
  TRACK 57 AUDIO
    TITLE "6:cjc043_1228"
    INDEX 01 00:54:34
  TRACK 58 AUDIO
    TITLE "0:"
    INDEX 01 00:55:40
  TRACK 59 AUDIO
    TITLE "7:cjc043_1229"
    INDEX 01 00:56:18
  TRACK 60 AUDIO
    TITLE "0:"
    INDEX 01 00:57:64
  TRACK 61 AUDIO
    TITLE "6:cjc043_1230"
    INDEX 01 00:58:40
  TRACK 62 AUDIO
    TITLE "0:"
    INDEX 01 00:59:47
  TRACK 63 AUDIO
    TITLE "7:cjc043_1231"
    INDEX 01 01:00:27
  TRACK 64 AUDIO
    TITLE "0:"
    INDEX 01 01:02:18
